<mxfile host="65bd71144e">
    <diagram id="yk8NF5s4lmzRFMYtV1e7" name="Page-1">
        <mxGraphModel dx="1155" dy="660" grid="1" gridSize="10" guides="1" tooltips="1" connect="1" arrows="1" fold="1" page="1" pageScale="1" pageWidth="827" pageHeight="1169" math="0" shadow="0">
            <root>
                <mxCell id="0"/>
                <mxCell id="1" parent="0"/>
                <mxCell id="2" value="Inserir estoque" style="shape=umlFrame;whiteSpace=wrap;html=1;width=61;height=30;" vertex="1" parent="1">
                    <mxGeometry x="38" y="110" width="751" height="390" as="geometry"/>
                </mxCell>
                <mxCell id="6" value="Sistema" style="shape=umlLifeline;perimeter=lifelinePerimeter;whiteSpace=wrap;html=1;container=1;collapsible=0;recursiveResize=0;outlineConnect=0;" vertex="1" parent="1">
                    <mxGeometry x="330" y="140" width="100" height="340" as="geometry"/>
                </mxCell>
                <mxCell id="13" value="" style="html=1;points=[];perimeter=orthogonalPerimeter;" vertex="1" parent="6">
                    <mxGeometry x="45" y="60" width="10" height="80" as="geometry"/>
                </mxCell>
                <mxCell id="28" value="" style="html=1;points=[];perimeter=orthogonalPerimeter;" vertex="1" parent="6">
                    <mxGeometry x="45" y="150" width="10" height="40" as="geometry"/>
                </mxCell>
                <mxCell id="39" value="" style="html=1;points=[];perimeter=orthogonalPerimeter;" vertex="1" parent="6">
                    <mxGeometry x="45" y="230" width="10" height="40" as="geometry"/>
                </mxCell>
                <mxCell id="51" value="" style="html=1;points=[];perimeter=orthogonalPerimeter;" vertex="1" parent="6">
                    <mxGeometry x="45" y="280" width="10" height="40" as="geometry"/>
                </mxCell>
                <mxCell id="7" value="" style="shape=umlLifeline;participant=umlActor;perimeter=lifelinePerimeter;whiteSpace=wrap;html=1;container=1;collapsible=0;recursiveResize=0;verticalAlign=top;spacingTop=36;outlineConnect=0;" vertex="1" parent="1">
                    <mxGeometry x="110" y="140" width="20" height="340" as="geometry"/>
                </mxCell>
                <mxCell id="10" value="" style="html=1;points=[];perimeter=orthogonalPerimeter;" vertex="1" parent="7">
                    <mxGeometry x="5" y="60" width="10" height="80" as="geometry"/>
                </mxCell>
                <mxCell id="35" value="" style="html=1;points=[];perimeter=orthogonalPerimeter;" vertex="1" parent="7">
                    <mxGeometry x="5" y="160" width="10" height="30" as="geometry"/>
                </mxCell>
                <mxCell id="54" value="" style="html=1;points=[];perimeter=orthogonalPerimeter;" vertex="1" parent="7">
                    <mxGeometry x="5" y="300" width="10" height="30" as="geometry"/>
                </mxCell>
                <mxCell id="8" value="Banco de Dados" style="shape=umlLifeline;perimeter=lifelinePerimeter;whiteSpace=wrap;html=1;container=1;collapsible=0;recursiveResize=0;outlineConnect=0;" vertex="1" parent="1">
                    <mxGeometry x="640" y="140" width="100" height="340" as="geometry"/>
                </mxCell>
                <mxCell id="22" value="" style="html=1;points=[];perimeter=orthogonalPerimeter;" vertex="1" parent="8">
                    <mxGeometry x="45" y="60" width="10" height="80" as="geometry"/>
                </mxCell>
                <mxCell id="47" value="" style="html=1;points=[];perimeter=orthogonalPerimeter;" vertex="1" parent="8">
                    <mxGeometry x="45" y="240" width="10" height="70" as="geometry"/>
                </mxCell>
                <mxCell id="9" value="Usuário" style="text;html=1;strokeColor=none;fillColor=none;align=center;verticalAlign=middle;whiteSpace=wrap;rounded=0;" vertex="1" parent="1">
                    <mxGeometry x="100" y="120" width="60" height="30" as="geometry"/>
                </mxCell>
                <mxCell id="12" value="" style="html=1;verticalAlign=bottom;endArrow=block;exitX=1.25;exitY=0.281;exitDx=0;exitDy=0;exitPerimeter=0;entryX=-0.083;entryY=0.281;entryDx=0;entryDy=0;entryPerimeter=0;" edge="1" parent="1" source="10" target="13">
                    <mxGeometry width="80" relative="1" as="geometry">
                        <mxPoint x="150" y="220" as="sourcePoint"/>
                        <mxPoint x="230" y="220" as="targetPoint"/>
                    </mxGeometry>
                </mxCell>
                <mxCell id="14" value="1: Enviar id do produto e quantidade de estoque" style="edgeLabel;html=1;align=center;verticalAlign=middle;resizable=0;points=[];" vertex="1" connectable="0" parent="12">
                    <mxGeometry x="0.219" relative="1" as="geometry">
                        <mxPoint x="-27" y="-14" as="offset"/>
                    </mxGeometry>
                </mxCell>
                <mxCell id="20" value="" style="html=1;verticalAlign=bottom;endArrow=block;exitX=1.167;exitY=0.396;exitDx=0;exitDy=0;exitPerimeter=0;entryX=0.083;entryY=0.406;entryDx=0;entryDy=0;entryPerimeter=0;" edge="1" parent="1" source="13" target="22">
                    <mxGeometry width="80" relative="1" as="geometry">
                        <mxPoint x="390" y="230" as="sourcePoint"/>
                        <mxPoint x="690" y="232" as="targetPoint"/>
                    </mxGeometry>
                </mxCell>
                <mxCell id="21" value="2: Buscar o produto pelo ID" style="edgeLabel;html=1;align=center;verticalAlign=middle;resizable=0;points=[];" vertex="1" connectable="0" parent="20">
                    <mxGeometry x="0.219" relative="1" as="geometry">
                        <mxPoint x="-27" y="-14" as="offset"/>
                    </mxGeometry>
                </mxCell>
                <mxCell id="27" value="SE" style="shape=umlFrame;whiteSpace=wrap;html=1;fontSize=10;fillColor=#FFFFFF;width=30;height=20;" vertex="1" parent="1">
                    <mxGeometry x="400" y="280" width="100" height="40" as="geometry"/>
                </mxCell>
                <mxCell id="29" value="" style="html=1;verticalAlign=bottom;endArrow=block;exitX=0;exitY=0.865;exitDx=0;exitDy=0;exitPerimeter=0;entryX=1.167;entryY=0.844;entryDx=0;entryDy=0;entryPerimeter=0;" edge="1" parent="1" source="22" target="13">
                    <mxGeometry width="80" relative="1" as="geometry">
                        <mxPoint x="396.6700000000001" y="289.58000000000004" as="sourcePoint"/>
                        <mxPoint x="695.8300000000002" y="290.3800000000001" as="targetPoint"/>
                    </mxGeometry>
                </mxCell>
                <mxCell id="31" value="3: Retornar o produto ou nulo" style="text;html=1;strokeColor=none;fillColor=none;align=center;verticalAlign=middle;whiteSpace=wrap;rounded=0;fontSize=10;" vertex="1" parent="1">
                    <mxGeometry x="450" y="240" width="190" height="30" as="geometry"/>
                </mxCell>
                <mxCell id="32" value="Produto == null" style="text;html=1;strokeColor=none;fillColor=none;align=center;verticalAlign=middle;whiteSpace=wrap;rounded=0;fontSize=10;" vertex="1" parent="1">
                    <mxGeometry x="414" y="290" width="75" height="30" as="geometry"/>
                </mxCell>
                <mxCell id="34" value="4: Retorna que o produto é inválido" style="html=1;verticalAlign=bottom;endArrow=open;dashed=1;endSize=8;fontSize=10;exitX=-0.25;exitY=0.625;exitDx=0;exitDy=0;exitPerimeter=0;entryX=1;entryY=0.5;entryDx=0;entryDy=0;entryPerimeter=0;" edge="1" parent="1" source="28" target="35">
                    <mxGeometry relative="1" as="geometry">
                        <mxPoint x="375" y="310" as="sourcePoint"/>
                        <mxPoint x="130" y="314" as="targetPoint"/>
                    </mxGeometry>
                </mxCell>
                <mxCell id="41" value="Produto == null" style="text;html=1;strokeColor=none;fillColor=none;align=center;verticalAlign=middle;whiteSpace=wrap;rounded=0;fontSize=10;" vertex="1" parent="1">
                    <mxGeometry x="414" y="290" width="75" height="30" as="geometry"/>
                </mxCell>
                <mxCell id="44" value="" style="group" vertex="1" connectable="0" parent="1">
                    <mxGeometry x="400" y="330" width="100" height="40" as="geometry"/>
                </mxCell>
                <mxCell id="42" value="SE" style="shape=umlFrame;whiteSpace=wrap;html=1;fontSize=10;fillColor=#FFFFFF;width=30;height=20;" vertex="1" parent="44">
                    <mxGeometry width="100" height="40" as="geometry"/>
                </mxCell>
                <mxCell id="43" value="Qtde &amp;lt;= 0" style="text;html=1;strokeColor=none;fillColor=none;align=center;verticalAlign=middle;whiteSpace=wrap;rounded=0;fontSize=10;" vertex="1" parent="44">
                    <mxGeometry x="14" y="10" width="75" height="30" as="geometry"/>
                </mxCell>
                <mxCell id="45" value="" style="html=1;verticalAlign=bottom;endArrow=block;exitX=1.5;exitY=0.75;exitDx=0;exitDy=0;exitPerimeter=0;entryX=0.5;entryY=0.286;entryDx=0;entryDy=0;entryPerimeter=0;" edge="1" parent="1" source="39" target="47">
                    <mxGeometry width="80" relative="1" as="geometry">
                        <mxPoint x="414" y="400.0000000000001" as="sourcePoint"/>
                        <mxPoint x="660.6700000000001" y="400.0000000000001" as="targetPoint"/>
                    </mxGeometry>
                </mxCell>
                <mxCell id="46" value="5: Adicionar o estoque ao produto" style="edgeLabel;html=1;align=center;verticalAlign=middle;resizable=0;points=[];" vertex="1" connectable="0" parent="45">
                    <mxGeometry x="0.219" relative="1" as="geometry">
                        <mxPoint x="-27" y="-14" as="offset"/>
                    </mxGeometry>
                </mxCell>
                <mxCell id="49" value="" style="html=1;verticalAlign=bottom;endArrow=block;exitX=-0.333;exitY=0.738;exitDx=0;exitDy=0;exitPerimeter=0;entryX=1.25;entryY=0.313;entryDx=0;entryDy=0;entryPerimeter=0;" edge="1" parent="1" source="47" target="51">
                    <mxGeometry width="80" relative="1" as="geometry">
                        <mxPoint x="390" y="520" as="sourcePoint"/>
                        <mxPoint x="690" y="520.02" as="targetPoint"/>
                    </mxGeometry>
                </mxCell>
                <mxCell id="52" value="6: Retorna que a operação foi concluída" style="edgeLabel;html=1;align=center;verticalAlign=middle;resizable=0;points=[];" vertex="1" connectable="0" parent="1">
                    <mxGeometry x="540" y="420.0000000000001" as="geometry"/>
                </mxCell>
                <mxCell id="53" value="" style="html=1;verticalAlign=bottom;endArrow=block;exitX=-0.333;exitY=0.738;exitDx=0;exitDy=0;exitPerimeter=0;entryX=1.083;entryY=0.306;entryDx=0;entryDy=0;entryPerimeter=0;" edge="1" parent="1" target="54">
                    <mxGeometry width="80" relative="1" as="geometry">
                        <mxPoint x="374.1700000000001" y="450.00000000000006" as="sourcePoint"/>
                        <mxPoint x="80" y="450.85999999999996" as="targetPoint"/>
                    </mxGeometry>
                </mxCell>
                <mxCell id="55" value="7: Informar ao usuário que o estoque foi inserido" style="text;html=1;strokeColor=none;fillColor=none;align=center;verticalAlign=middle;whiteSpace=wrap;rounded=0;fontSize=10;" vertex="1" parent="1">
                    <mxGeometry x="110" y="420" width="270" height="30" as="geometry"/>
                </mxCell>
            </root>
        </mxGraphModel>
    </diagram>
</mxfile>